<?xml version="1.0" encoding="utf-8"?>
<!-- Generator: Adobe Illustrator 23.0.1, SVG Export Plug-In . SVG Version: 6.00 Build 0)  -->
<svg version="1.1" id="Layer_1" xmlns="http://www.w3.org/2000/svg" xmlns:xlink="http://www.w3.org/1999/xlink" x="0px" y="0px"
	 viewBox="0 0 183.01 172.55" style="enable-background:new 0 0 183.01 172.55;" xml:space="preserve">
<style type="text/css">
	.st0{fill:none;stroke:#FFFFFF;stroke-width:10;stroke-miterlimit:10;}
	.st1{fill:#FFFFFF;}
</style>
<path class="st0" d="M151.23,152.77H29.97c-5.23,0-9.47-4.24-9.47-9.47V22.04c0-5.23,4.24-9.47,9.47-9.47h121.25
	c5.23,0,9.47,4.24,9.47,9.47V143.3C160.7,148.53,156.46,152.77,151.23,152.77z"/>
<path class="st1" d="M90.6,139.36L90.6,139.36c-3.13,0-5.67-2.54-5.67-5.67V31.65c0-3.13,2.54-5.67,5.67-5.67h0
	c3.13,0,5.67,2.54,5.67,5.67v102.05C96.27,136.83,93.73,139.36,90.6,139.36z"/>
<path class="st1" d="M141.62,138.37L141.62,138.37c-3.13,0-5.67-2.54-5.67-5.67V84.51c0-3.13,2.54-5.67,5.67-5.67h0
	c3.13,0,5.67,2.54,5.67,5.67v48.19C147.29,135.83,144.75,138.37,141.62,138.37z"/>
<path class="st1" d="M40.01,138.37L40.01,138.37c-3.13,0-5.67-2.54-5.67-5.67V84.51c0-3.13,2.54-5.67,5.67-5.67h0
	c3.13,0,5.67,2.54,5.67,5.67v48.19C45.68,135.83,43.14,138.37,40.01,138.37z"/>
<path class="st1" d="M93.87,133.69L93.87,133.69c0,3.13-2.54,5.67-5.67,5.67H40.01c-3.13,0-5.67-2.54-5.67-5.67v0
	c0-3.13,2.54-5.67,5.67-5.67H88.2C91.33,128.03,93.87,130.56,93.87,133.69z"/>
<path class="st1" d="M147.08,133.69L147.08,133.69c0,3.13-2.54,5.67-5.67,5.67h-31.18c-3.13,0-5.67-2.54-5.67-5.67v0
	c0-3.13,2.54-5.67,5.67-5.67h31.18C144.54,128.03,147.08,130.56,147.08,133.69z"/>
<path class="st1" d="M147.29,83.67L147.29,83.67c0,3.13-2.54,5.67-5.67,5.67H96.27c-3.13,0-5.67-2.54-5.67-5.67v0
	c0-3.13,2.54-5.67,5.67-5.67h45.35C144.75,78,147.29,80.54,147.29,83.67z"/>
<path class="st1" d="M76.86,83.67L76.86,83.67c0,3.13-2.54,5.67-5.67,5.67H40.01c-3.13,0-5.67-2.54-5.67-5.67v0
	c0-3.13,2.54-5.67,5.67-5.67h31.18C74.32,78,76.86,80.54,76.86,83.67z"/>
</svg>
